# xmcd CD database file
#
# Track frame offsets:
#	150
#	65194
#	94945
#	124913
#	187465
#	223773
#	259034
#
# Disc length: 3845 seconds
#
# Revision: 0
# Processed by: cddbd v1.5.1PL0 Copyright (c) Steve Scherf et al.
# Submitted via: CDex 1.51
#
DISCID=760f0307
DTITLE=W.A.Mozart/L.Beethoven - Summer of ´03
DYEAR=2003
DGENRE=Klassik
TTITLE0=Klavierkonzert Nr. 21-Kv 467 - Allegro meastoso
TTITLE1=Klavierkonzert Nr. 21-Kv 467 - Andante
TTITLE2=Klavierkonzert Nr. 21-Kv 467 - Allegro vivace assia
TTITLE3=Symphonie Nr. 7-op. 92 - Poco sostenuto)Vivace
TTITLE4=Symphonie Nr. 7-op. 92 - Allegretto
TTITLE5=Symphonie Nr. 7-op. 92 - Scherzo:Prosto/Assi meno presto(Trio)
TTITLE6=Symphonie Nr. 7-op. 92 - Allegro con brio
EXTD=YEAR: 2003
EXTT0=
EXTT1=
EXTT2=
EXTT3=
EXTT4=
EXTT5=
EXTT6=
PLAYORDER=
